<svg version="1.1" id="Layer_1" xmlns="http://www.w3.org/2000/svg" xmlns:xlink="http://www.w3.org/1999/xlink" x="0px" y="0px"
	 width="100%" viewBox="0 0 372 368" enable-background="new 0 0 372 368" xml:space="preserve">
<path fill="#000000" opacity="1.000000" stroke="none" 
	d="
M175.000000,369.000000 
	C117.072983,369.000000 59.145966,369.000000 1.000000,369.000000 
	C1.000000,311.312622 1.000000,253.624969 1.462551,195.384247 
	C59.627068,194.831192 117.329033,194.831192 175.145279,194.831192 
	C175.242966,197.018433 175.353500,198.341095 175.353699,199.663803 
	C175.362366,254.791321 175.363647,309.918854 175.346069,365.046356 
	C175.345657,366.364258 175.120392,367.682129 175.000000,369.000000 
M94.240433,325.002106 
	C94.798485,323.538055 95.831779,322.077240 95.841873,320.609436 
	C95.956459,303.947601 95.914597,287.284698 95.914597,270.622101 
	C95.914597,265.180328 95.914597,259.738525 95.914597,253.893250 
	C104.977982,253.893250 113.557121,253.893250 122.257523,253.893250 
	C122.257523,249.387955 122.257523,245.303970 122.257523,241.311310 
	C99.566757,241.311310 77.162521,241.311310 54.835098,241.311310 
	C54.835098,245.694550 54.835098,249.745483 54.835098,254.187347 
	C63.806217,254.187347 72.405205,254.187347 81.402664,254.187347 
	C81.402664,277.995667 81.402664,301.404572 81.402664,325.010376 
	C85.640022,325.010376 89.463409,325.010376 94.240433,325.002106 
z"/>
<path fill="#000101" opacity="1.000000" stroke="none" 
	d="
M198.000000,1.000000 
	C256.259918,1.000000 314.519836,1.000000 373.000000,1.000000 
	C373.000000,58.354038 373.000000,115.708359 372.534760,173.468292 
	C314.290039,173.873917 256.510529,173.873917 198.189835,173.873917 
	C198.189835,171.382767 198.189835,169.425858 198.189835,167.468964 
	C198.189835,123.140610 198.202225,78.812248 198.181137,34.483910 
	C198.175827,23.322580 198.063278,12.161302 198.000000,1.000000 
M265.841125,124.319572 
	C265.841125,106.602722 265.841125,88.885880 265.841125,69.755234 
	C267.892700,72.473137 269.056824,73.996521 270.201355,75.534462 
	C282.721527,92.358330 295.211975,109.204552 307.808990,125.970711 
	C308.784943,127.269669 310.432983,128.732025 311.889740,128.873795 
	C315.957886,129.269669 320.089630,129.011475 324.274292,129.011475 
	C324.274292,100.728111 324.274292,72.984398 324.274292,45.322678 
	C319.419312,45.322678 314.846619,45.322678 309.751404,45.322678 
	C309.751404,64.816757 309.751404,83.977142 309.751404,104.134628 
	C295.442719,84.962448 281.835419,66.674416 268.123840,48.464931 
	C267.040741,47.026558 265.326416,45.328766 263.743652,45.145000 
	C259.684357,44.673695 255.533905,44.987625 251.332123,44.987625 
	C251.332123,73.215591 251.332123,100.937752 251.332123,129.013992 
	C255.209366,129.013992 258.855499,128.811371 262.467438,129.075592 
	C265.575897,129.302979 266.188171,127.847687 265.841125,124.319572 
z"/>
<path fill="#000000" opacity="1.000000" stroke="none" 
	d="
M373.000000,195.000000 
	C373.000000,252.926590 373.000000,310.853180 373.000000,369.000000 
	C315.979309,369.000000 258.958313,369.000000 201.369659,368.539734 
	C200.802017,310.523743 200.802017,252.968048 200.802017,194.782013 
	C203.279449,194.782013 205.229874,194.782013 207.180298,194.782013 
	C258.962372,194.781998 310.744476,194.777802 362.526550,194.791367 
	C366.017731,194.792282 369.508850,194.927338 373.000000,195.000000 
M293.899536,240.991425 
	C289.440521,240.991425 284.981537,240.991425 280.707581,240.991425 
	C268.297882,269.116333 256.100372,296.760315 243.635422,325.010406 
	C248.042221,325.010406 251.832016,324.775421 255.576630,325.085693 
	C258.511078,325.328766 259.644623,324.027039 260.600220,321.547394 
	C262.620087,316.306000 264.936005,311.178711 267.127930,306.010681 
	C280.266449,306.010681 293.080292,305.932281 305.889954,306.126801 
	C307.233063,306.147217 309.151581,307.477264 309.773773,308.716522 
	C312.006836,313.164032 313.694611,317.882446 315.829712,322.384033 
	C316.350433,323.481903 317.746948,324.818298 318.815979,324.887756 
	C323.178497,325.171204 327.570221,325.005890 332.150391,325.005890 
	C331.908600,323.859161 331.887604,323.351868 331.697937,322.918365 
	C320.170715,296.571625 308.640350,270.226166 297.052094,243.906235 
	C296.573029,242.818176 295.539764,241.974152 293.899536,240.991425 
z"/>
<path fill="#010101" opacity="1.000000" stroke="none" 
	d="
M1.000000,174.000000 
	C1.000000,116.405899 1.000000,58.811790 1.000000,1.000000 
	C59.020714,1.000000 117.041695,1.000000 175.478943,1.466291 
	C175.895187,59.112991 175.895187,116.293404 175.895187,173.839630 
	C173.361313,173.839630 171.556931,173.839630 169.752533,173.839630 
	C131.473328,173.839630 93.194107,173.823181 54.914913,173.846893 
	C36.943249,173.858017 18.971636,173.946548 1.000000,174.000000 
M85.607338,129.901154 
	C89.081192,129.586960 92.582558,129.453705 96.024590,128.930267 
	C126.818840,124.247314 142.148224,86.923042 123.300865,62.159779 
	C112.592888,48.090721 97.971848,43.102947 80.609367,44.883873 
	C53.634621,47.650742 36.147549,72.752342 43.268852,98.754036 
	C48.071259,116.288849 63.826649,128.137299 85.607338,129.901154 
z"/>
<path fill="#31758D" opacity="1.000000" stroke="none" 
	d="
M1.000000,174.468536 
	C18.971636,173.946548 36.943249,173.858017 54.914913,173.846893 
	C93.194107,173.823181 131.473328,173.839630 169.752533,173.839630 
	C171.556931,173.839630 173.361313,173.839630 175.895187,173.839630 
	C175.895187,116.293404 175.895187,59.112991 175.947601,1.466291 
	C183.020950,1.000000 190.041901,1.000000 197.531433,1.000000 
	C198.063278,12.161302 198.175827,23.322580 198.181137,34.483910 
	C198.202225,78.812248 198.189835,123.140610 198.189835,167.468964 
	C198.189835,169.425858 198.189835,171.382767 198.189835,173.873917 
	C256.510529,173.873917 314.290039,173.873917 372.534760,173.936951 
	C373.000000,180.687637 373.000000,187.375290 373.000000,194.531464 
	C369.508850,194.927338 366.017731,194.792282 362.526550,194.791367 
	C310.744476,194.777802 258.962372,194.781998 207.180298,194.782013 
	C205.229874,194.782013 203.279449,194.782013 200.802017,194.782013 
	C200.802017,252.968048 200.802017,310.523743 200.901001,368.539734 
	C192.645767,369.000000 184.291534,369.000000 175.468658,369.000000 
	C175.120392,367.682129 175.345657,366.364258 175.346069,365.046356 
	C175.363647,309.918854 175.362366,254.791321 175.353699,199.663803 
	C175.353500,198.341095 175.242966,197.018433 175.145279,194.831192 
	C117.329033,194.831192 59.627068,194.831192 1.462551,194.915588 
	C1.000000,188.312363 1.000000,181.624710 1.000000,174.468536 
z"/>
<path fill="#F9F9F9" opacity="1.000000" stroke="none" 
	d="
M93.763618,325.006226 
	C89.463409,325.010376 85.640022,325.010376 81.402664,325.010376 
	C81.402664,301.404572 81.402664,277.995667 81.402664,254.187347 
	C72.405205,254.187347 63.806217,254.187347 54.835098,254.187347 
	C54.835098,249.745483 54.835098,245.694550 54.835098,241.311310 
	C77.162521,241.311310 99.566757,241.311310 122.257523,241.311310 
	C122.257523,245.303970 122.257523,249.387955 122.257523,253.893250 
	C113.557121,253.893250 104.977982,253.893250 95.914597,253.893250 
	C95.914597,259.738525 95.914597,265.180328 95.914597,270.622101 
	C95.914597,287.284698 95.956459,303.947601 95.841873,320.609436 
	C95.831779,322.077240 94.798485,323.538055 93.763618,325.006226 
z"/>
<path fill="#F7F7F7" opacity="1.000000" stroke="none" 
	d="
M265.841095,124.798096 
	C266.188171,127.847687 265.575897,129.302979 262.467438,129.075592 
	C258.855499,128.811371 255.209366,129.013992 251.332123,129.013992 
	C251.332123,100.937752 251.332123,73.215591 251.332123,44.987625 
	C255.533905,44.987625 259.684357,44.673695 263.743652,45.145000 
	C265.326416,45.328766 267.040741,47.026558 268.123840,48.464931 
	C281.835419,66.674416 295.442719,84.962448 309.751404,104.134628 
	C309.751404,83.977142 309.751404,64.816757 309.751404,45.322678 
	C314.846619,45.322678 319.419312,45.322678 324.274292,45.322678 
	C324.274292,72.984398 324.274292,100.728111 324.274292,129.011475 
	C320.089630,129.011475 315.957886,129.269669 311.889740,128.873795 
	C310.432983,128.732025 308.784943,127.269669 307.808990,125.970711 
	C295.211975,109.204552 282.721527,92.358330 270.201355,75.534462 
	C269.056824,73.996521 267.892700,72.473137 265.841125,69.755234 
	C265.841125,88.885880 265.841125,106.602722 265.841095,124.798096 
z"/>
<path fill="#F9F9F9" opacity="1.000000" stroke="none" 
	d="
M294.332092,241.003937 
	C295.539764,241.974152 296.573029,242.818176 297.052094,243.906235 
	C308.640350,270.226166 320.170715,296.571625 331.697937,322.918365 
	C331.887604,323.351868 331.908600,323.859161 332.150391,325.005890 
	C327.570221,325.005890 323.178497,325.171204 318.815979,324.887756 
	C317.746948,324.818298 316.350433,323.481903 315.829712,322.384033 
	C313.694611,317.882446 312.006836,313.164032 309.773773,308.716522 
	C309.151581,307.477264 307.233063,306.147217 305.889954,306.126801 
	C293.080292,305.932281 280.266449,306.010681 267.127930,306.010681 
	C264.936005,311.178711 262.620087,316.306000 260.600220,321.547394 
	C259.644623,324.027039 258.511078,325.328766 255.576630,325.085693 
	C251.832016,324.775421 248.042221,325.010406 243.635422,325.010406 
	C256.100372,296.760315 268.297882,269.116333 280.707581,240.991425 
	C284.981537,240.991425 289.440521,240.991425 294.332092,241.003937 
M276.999634,282.511292 
	C275.591034,285.839539 274.182434,289.167755 272.636505,292.820404 
	C283.006165,292.820404 292.827332,292.820404 303.155121,292.820404 
	C298.061554,280.879547 293.151764,269.369568 287.859528,256.962952 
	C284.026428,265.969666 280.657227,273.886261 276.999634,282.511292 
z"/>
<path fill="#F9F9F9" opacity="1.000000" stroke="none" 
	d="
M85.145050,129.899750 
	C63.826649,128.137299 48.071259,116.288849 43.268852,98.754036 
	C36.147549,72.752342 53.634621,47.650742 80.609367,44.883873 
	C97.971848,43.102947 112.592888,48.090721 123.300865,62.159779 
	C142.148224,86.923042 126.818840,124.247314 96.024590,128.930267 
	C92.582558,129.453705 89.081192,129.586960 85.145050,129.899750 
M110.394356,104.801353 
	C117.731483,94.165764 118.250656,81.014549 111.726021,71.068855 
	C104.950363,60.740520 93.038345,55.777672 80.477837,58.050068 
	C69.268707,60.077984 59.508945,69.911827 57.270550,81.433510 
	C54.726082,94.530647 61.422138,107.773331 73.615623,113.758904 
	C86.043777,119.859665 100.113457,116.620781 110.394356,104.801353 
z"/>
<path fill="#050505" opacity="1.000000" stroke="none" 
	d="
M277.143860,282.157104 
	C280.657227,273.886261 284.026428,265.969666 287.859528,256.962952 
	C293.151764,269.369568 298.061554,280.879547 303.155121,292.820404 
	C292.827332,292.820404 283.006165,292.820404 272.636505,292.820404 
	C274.182434,289.167755 275.591034,285.839539 277.143860,282.157104 
z"/>
<path fill="#020202" opacity="1.000000" stroke="none" 
	d="
M110.182877,105.095512 
	C100.113457,116.620781 86.043777,119.859665 73.615623,113.758904 
	C61.422138,107.773331 54.726082,94.530647 57.270550,81.433510 
	C59.508945,69.911827 69.268707,60.077984 80.477837,58.050068 
	C93.038345,55.777672 104.950363,60.740520 111.726021,71.068855 
	C118.250656,81.014549 117.731483,94.165764 110.182877,105.095512 
z"/>
</svg>